<?xml version="1.0" encoding="UTF-8"?>
<svg xmlns="http://www.w3.org/2000/svg" viewBox="0 0 200 200">
  <path fill="#FFFFFF" d="M39.06,126.58h14.06l39.29,33c1.88,1.58,4.28,2.44,6.77,2.44c5.63,0,10.2-4.32,10.2-9.63V47.62 c0-5.32-4.57-9.63-10.2-9.63c-2.49,0-4.89,0.86-6.77,2.44l-39.29,33H39.06C31.3,73.42,25,79.37,25,86.71v26.58 C25,120.63,31.3,126.58,39.06,126.58"/>
  <path fill="#FFFFFF" d="M154.23,58.75c-3.02-2.33-7.44-1.88-9.9,0.97s-1.99,7.03,1.03,9.36c9.52,7.31,15.59,18.44,15.59,30.92 s-6.06,23.62-15.59,30.95c-3.02,2.33-3.46,6.51-1.03,9.36c2.43,2.85,6.88,3.27,9.9,0.97c12.66-9.75,20.77-24.61,20.77-41.25 s-8.12-31.51-20.77-41.25V58.75z"/>
  <path fill="#FFFFFF" d="M136.5,79.37c-3.02-2.33-7.44-1.88-9.9,0.97c-2.46,2.85-1.99,7.03,1.03,9.36c3.16,2.44,5.19,6.15,5.19,10.3 s-2.02,7.86-5.19,10.33c-3.02,2.33-3.46,6.51-1.03,9.36s6.88,3.27,9.9,0.97c6.3-4.9,10.37-12.32,10.37-20.65 s-4.07-15.75-10.4-20.63L136.5,79.37z"/>
</svg>
